<?xml version="1.0" encoding="utf-8"?>
<!-- Generator: Adobe Illustrator 23.0.0, SVG Export Plug-In . SVG Version: 6.00 Build 0)  -->
<svg version="1.0" id="图层_1" xmlns="http://www.w3.org/2000/svg" xmlns:xlink="http://www.w3.org/1999/xlink" x="0px" y="0px"
	 viewBox="0 0 180.3 199.1" style="enable-background:new 0 0 180.3 199.1;" xml:space="preserve">
<style type="text/css">
	.st0{fill:#E6E9ED;}
	.st1{fill:#E7659F;}
	.st2{fill:#FF7DB9;}
</style>
<title>ClipLOGO-Classic_White</title>
<g>
	
		<image style="overflow:visible;opacity:0.25;" width="155" height="154" xlink:href="CAE6BBDE.png"  transform="matrix(1 0 0 1 12.9662 22.329)">
	</image>
	<g>
		<g>
			<path class="st0" d="M30.2,158.9c3,3,8,3,11,0l67.2-66.4l-11-10.9L30.2,148C27.2,151,27.2,155.9,30.2,158.9z"/>
			<path class="st1" d="M142,48.5c-14.2-14-37.2-14-51.4,0c-14.2,14-14.2,36.8,0,50.8c14.2,14,37.2,14,51.4,0
				C156.2,85.3,156.2,62.5,142,48.5z"/>
			<path class="st2" d="M138.3,106.6c-1,1-2.7,1-3.7,0L83.2,55.7c-1-1-1-2.6,0-3.6l7.3-7.2c1-1,2.7-1,3.7,0l51.4,50.8
				c1,1,1,2.6,0,3.6L138.3,106.6z"/>
			<path class="st2" d="M106.2,53c3.1-1.5,6.5-2.3,10.1-2.3c6.2,0,12.1,2.4,16.5,6.8l0,0c0.5,0.5,1.1,0.8,1.8,0.8
				c1.4,0,2.6-1.1,2.6-2.6c0-0.7-0.3-1.4-0.8-1.8l0,0c-9.3-9.1-23.3-10.7-34.2-4.7L106.2,53z"/>
		</g>
	</g>
</g>
</svg>
